<svg xmlns="http://www.w3.org/2000/svg" width="205" height="38" viewBox="0 0 205 38">
    <g fill="none" fill-rule="evenodd">
        <g fill="#007C4C">
            <g>
                <path d="M118.442 11.614c1.82 4.74-3.784 7.475-4.827 11.483-.348 1.253.798 2.067 1.616 2.652 1.309.501 2.945.126 3.926 1.483.655.835.614 1.962.716 3.048.573.751 1.473 1.127 2.127 1.837-.777.167-1.554-.25-2.29-.376-.062.69 0 1.086 0 1.67-1.432-1.94-3.804-3.444-6.034-4.258-1.104-.376-2.372-.46-3.538.292-3.456 2.234-4.172 6.347-7.382 8.351-2.598 1.629-6.77-2.443-9.899-4.343-2.576-2.088-5.48-3.653-8.119-5.365 2.7-.794 5.195.897 7.547 1.565-.593-.96-1.616-1.252-1.984-2.338 2.086-.501 3.518 1.274 5.44 1.482-.286-.877-1.759-1.628-1.922-2.714 1.922-.042 3.599 1.128 5.562 1.274l.164-.21c-.491-.709-1.268-1.231-1.718-2.066 1.39-.105 2.618.605 3.927.898.245-.501-.45-.877-.369-1.462.982-.25 1.82.919 2.761.522-2.086-2.819-4.499-5.888-7.219-8.038L83 10.507l6.667 1.295.205-.167-.982-1.17c.94 0 1.922.71 2.986.878.286-.376-.246-.627-.205-1.003.573.084 1.145.293 1.636.21l-.49-.877 1.145.104c.163-.627-.593-1.107-.716-1.775.368.083.695.313 1.145.23-.327-1.545-1.227-3.153-1.82-4.698 2.884 3.278 5.317 7.454 8.16 10.982l6.892 4.197h.368c-.081-.752-.777-1.462-.859-2.339l1.514.501c-.205-1.42-1.391-2.672-1.78-4.133l-.082-.376c.819.209 1.596 1.127 2.455 1.608l.204-.21c-.573-1.628-1.595-3.11-2.004-4.823.736.21 1.35.773 2.004 1.19v-.584c-.675-1.315-1.493-2.568-1.697-4.113.777.376 1.39 1.148 2.209 1.399-.778-1.963-2.066-3.946-2.475-6.16l.205-.5c3.415 4.238 7.219 7.265 10.757 11.441" transform="translate(-34 -64) translate(34 63.828)"/>
                <path d="M88 17.193L77.631 38.172 71.525 38.172 69.988 27.301 64.537 38.172 58 38.172 68.41 17.193 75.172 17.172 76.135 27.322 81.176 17.172 88 17.193M155.839 17.172L163 17.172 152.162 38.172 145 38.172 155.839 17.172M57.851 17.172L65 17.172 54.149 38.172 47 38.172 57.851 17.172M40.625 17.172L24 38.172h7.333l2.48-3.053 6.437-.02-.5 3.073h6.48l3.77-21h-9.375zm.73 12.687h-3.126l4.188-5.487-1.063 5.487z" transform="translate(-34 -64) translate(34 63.828)"/>
                <g>
                    <path d="M29.585 2.425C28.278.801 26.805.127 24.73.211L14.23.169.142 28.979h16.682c1.059 0 1.681-.148 2.678-.506 2.966-1.097 4.647-2.974 5.457-6.053.705-2.679.394-4.683-1.059-7.024 3.113-.949 4.939-2.7 6.038-5.8.935-2.615 1.412-4.998-.352-7.17zM17.695 21.64c-1.556 2.382-4.046 1.897-6.993 1.792l3.175-6.496c1.826.042 4.15-.337 4.71 1.54.353 1.223-.186 2.088-.892 3.164zm3.382-10.25c-1.515.632-3.402.42-4.627.379l2.864-5.885c1.058-.02 3.548-.548 4.253 1.097.851 1.92-.622 3.65-2.49 4.408zM74.654 19.868c1.307-2.32 2.594-5.273.456-6.834-1.162-.865-2.012-.548-3.361-.527l-5.457 11.157c3.008.528 6.577-.633 8.362-3.796zm7.428-8.162c2.304 5.293-.249 11.367-5.208 14.869-2.76 1.961-4.918 2.425-8.28 2.425l-11.847-.021 10.52-21.47h2.552c5.167 0 10.21-.465 12.263 4.197z" transform="translate(-34 -64) translate(34 63.828) translate(121 9.172)"/>
                </g>
                <path d="M23.356 17.7c.02-1.272-.392-2.757-1.693-2.8l-2.54.022s-2.644 5.325-3.263 6.661c3.696.34 7.413-.19 7.496-3.882zm6.629-5.154c1.755 2.736.991 6.491-.454 9.504-1.921 3.818-5.411 5.155-9.686 5.388l-.206.021 2.89 10.692h-6.938l-2.622-10.5-5.101 10.521H0l14.042-29h10.739c2.375-.02 3.882 1.316 5.204 3.374zM171.805 26.158l-3.12-.021 2.12-4.307c.98-.02 3.04-.392 3.63.969.674 1.525-.958 3.38-2.63 3.359zm8.667-6.121c-.57-1.319-1.631-2.865-3.344-2.865h-10.789L156 38.152h6.73l3.752-7.584 2.937 7.604 6.526-.02-2.671-7.337c2.732-.185 4.527-1.195 6.097-3.441 1.652-2.35 2.1-4.905 1.101-7.337zM203.468 35.84c.205 0 .355.02.45.06.17.07.256.209.256.416 0 .147-.054.255-.162.325-.057.036-.137.063-.24.08.13.02.225.073.285.16.06.088.09.173.09.256v.12c0 .039.001.08.004.123s.007.072.014.086l.011.02h-.273l-.003-.016-.005-.019-.006-.053v-.13c0-.19-.051-.317-.155-.378-.061-.035-.169-.053-.323-.053h-.23v.65h-.29V35.84h.577zm.31.26c-.071-.041-.188-.062-.349-.062h-.248v.596h.262c.123 0 .215-.012.276-.036.114-.045.17-.131.17-.258 0-.12-.037-.2-.11-.24zm.782 1.63c-.293.295-.648.442-1.063.442-.416 0-.77-.147-1.062-.441-.29-.293-.435-.647-.435-1.064 0-.412.146-.765.44-1.058.291-.29.644-.436 1.057-.437.415 0 .77.146 1.063.437.294.292.44.644.44 1.058 0 .415-.146.77-.44 1.064zm-1.975-1.975c-.25.252-.377.556-.377.912 0 .36.125.666.375.92.25.252.555.379.914.379.358 0 .663-.127.914-.38.25-.253.376-.56.376-.92 0-.355-.126-.66-.376-.911-.253-.254-.557-.38-.914-.38-.356 0-.66.126-.912.38z" transform="translate(-34 -64) translate(34 63.828)"/>
            </g>
        </g>
    </g>
</svg>
